<?xml version="1.0" encoding="utf-8"?>
<!-- Generator: Adobe Illustrator 21.1.0, SVG Export Plug-In . SVG Version: 6.00 Build 0)  -->
<svg version="1.1" id="圖層_1" focusable="false" xmlns="http://www.w3.org/2000/svg" xmlns:xlink="http://www.w3.org/1999/xlink"
	 x="0px" y="0px" viewBox="0 0 576 512" style="enable-background:new 0 0 576 512;" xml:space="preserve">
<style type="text/css">
	.st0{fill:#FFFFFF;}
</style>
<path class="st0" d="M504.7,320H211.6l6.5,32h268.4c15.4,0,26.8,14.3,23.4,29.3l-5.5,24.3c18.7,9.1,31.6,28.2,31.6,50.4
	c0,31.2-25.5,56.4-56.8,56c-29.8-0.4-54.4-24.6-55.2-54.4c-0.4-16.3,6.1-31,16.8-41.5H231.2c10.4,10.2,16.8,24.3,16.8,40
	c0,31.8-26.5,57.4-58.7,55.9c-28.5-1.3-51.8-24.4-53.3-52.9c-1.2-22,10.4-41.5,28.1-51.6L93.9,64H24C10.7,64,0,53.3,0,40V24
	C0,10.7,10.7,0,24,0h102.5c11.4,0,21.2,8,23.5,19.2l9.2,44.8H552c15.4,0,26.8,14.3,23.4,29.3l-47.3,208
	C525.6,312.2,515.9,320,504.7,320z M403,192h-43v-60c0-6.6-5.4-12-12-12h-24c-6.6,0-12,5.4-12,12v60h-43c-10.7,0-16,12.9-8.5,20.5
	l67,67c4.7,4.7,12.3,4.7,17,0l67-67C419.1,204.9,413.7,192,403,192L403,192z"/>
</svg>
