<?xml version="1.0" encoding="utf-8"?>
<!-- Generator: Adobe Illustrator 21.1.0, SVG Export Plug-In . SVG Version: 6.00 Build 0)  -->
<svg version="1.1" id="圖層_1" focusable="false" xmlns="http://www.w3.org/2000/svg" xmlns:xlink="http://www.w3.org/1999/xlink"
	 x="0px" y="0px" viewBox="0 0 496 512" style="enable-background:new 0 0 496 512;" xml:space="preserve">
<style type="text/css">
	.st0{fill:#FFFFFF;}
</style>
<path class="st0" d="M248,8C111,8,0,119,0,256s111,248,248,248s248-111,248-248S385,8,248,8z M330.3,365.6c-3.9,3.9-8,8-11.3,11.3
	c-3,3-5.1,6.7-6.2,10.7c-1.5,5.7-2.7,11.4-4.8,16.9l-17.4,46.9c-13.8,3-28,4.7-42.6,4.7v-27.4c1.7-12.6-7.6-36.3-22.6-51.3
	c-6-6-9.4-14.1-9.4-22.6v-32c0-11.6-6.3-22.3-16.5-28c-14.4-8-34.8-19.1-48.8-26.1c-11.5-5.8-22.1-13.1-31.7-21.8l-0.8-0.7
	c-6.8-6.2-12.9-13.1-18.1-20.7c-9.4-13.8-24.7-36.4-34.6-51.1c20.5-45.5,57.4-82,103.2-101.9l24,12C203.5,89.7,216,82,216,70.1V58.8
	c8-1.3,16.1-2.1,24.4-2.4l28.3,28.3c6.3,6.3,6.3,16.4,0,22.6L264,112l-10.3,10.3c-3.1,3.1-3.1,8.2,0,11.3l4.7,4.7
	c3.1,3.1,3.1,8.2,0,11.3l-8,8c-1.5,1.5-3.5,2.3-5.7,2.3h-9c-2.1,0-4.1,0.8-5.6,2.3l-9.9,9.6c-2.5,2.4-3.1,6.2-1.6,9.3l15.6,31.2
	c2.7,5.3-1.2,11.6-7.1,11.6h-5.6c-1.9,0-3.8-0.7-5.2-2l-9.3-8.1c-4.3-3.7-10.2-4.9-15.6-3.1l-31.2,10.4c-4.9,1.6-8.2,6.2-8.2,11.3
	c0,4.5,2.6,8.7,6.6,10.7l11.1,5.5c9.4,4.7,19.8,7.2,30.3,7.2s22.6,27.3,32,32h66.8c8.5,0,16.6,3.4,22.6,9.4l13.7,13.7
	c5.7,5.7,8.9,13.5,8.9,21.6C344,345,339.1,356.9,330.3,365.6z M417,274.3c-5.8-1.5-10.8-5-14.1-10l-18-27c-5.4-8.1-5.4-18.6,0-26.6
	l19.6-29.4c2.3-3.5,5.5-6.3,9.2-8.1l13-6.5c13.5,26.9,21.3,57.2,21.3,89.3c0,8.7-0.7,17.2-1.8,25.5L417,274.3z"/>
</svg>
