<?xml version="1.0" encoding="utf-8"?>
<!-- Generator: Adobe Illustrator 21.1.0, SVG Export Plug-In . SVG Version: 6.00 Build 0)  -->
<svg version="1.1" xmlns="http://www.w3.org/2000/svg" xmlns:xlink="http://www.w3.org/1999/xlink" x="0px" y="0px"
	 viewBox="0 0 67 67" style="enable-background:new 0 0 67 67;" xml:space="preserve">
<style type="text/css">
	.st0{fill:#FFFFFF;stroke:#000000;stroke-miterlimit:10;}
	.st1{fill:#B400FF;}
</style>
<g id="圖層_2">
	<rect x="15.8" y="16.6" class="st0" width="36.4" height="34.3"/>
</g>
<g id="Layer_1">
	<path class="st1" d="M43.3,26.6L43.3,26.6c0.5,0,1,0,1.5,0c0.6,0,1.2-0.6,1.2-1.2c0-1,0-1.9,0-2.9c0-0.7-0.5-1.2-1.2-1.2
		c-1,0-1.9,0-2.9,0c-0.7,0-1.2,0.6-1.2,1.2c0,1,0,1.9,0,2.9c0,0.1,0,0.3,0.1,0.4c0.2,0.5,0.6,0.8,1.2,0.8
		C42.3,26.6,42.8,26.6,43.3,26.6z M34,27.8c-3.4,0-6.1,2.7-6.2,6.1c0,3.5,2.7,6.2,6,6.3c3.5,0.1,6.2-2.7,6.3-6
		C40.3,30.7,37.5,27.8,34,27.8z M22,31.1L22,31.1c0,4.6,0,9.1,0,13.6c0,0.6,0.6,1.2,1.2,1.2c7.2,0,14.3,0,21.5,0
		c0.7,0,1.2-0.6,1.2-1.2c0-4.5,0-9,0-13.5v-0.1H43c0.4,1.3,0.5,2.7,0.4,4s-0.6,2.6-1.3,3.8s-1.6,2.1-2.8,2.9c-2.9,2-6.8,2.2-9.9,0.4
		c-1.6-0.9-2.8-2.1-3.7-3.7c-1.3-2.4-1.5-4.9-0.7-7.5C24,31.1,23,31.1,22,31.1z M46.2,49.3c0.2,0,0.3,0,0.5-0.1
		c1.2-0.3,2.3-1.3,2.5-2.6c0-0.1,0-0.3,0.1-0.4V21.8c0-0.1,0-0.3-0.1-0.4c-0.3-1.4-1.4-2.4-2.8-2.6c-0.1,0-0.1,0-0.2,0H21.8
		c-0.1,0-0.3,0-0.4,0.1c-1.4,0.3-2.4,1.4-2.5,2.8c0,0.1,0,0.1,0,0.2v24.5c0,0.2,0,0.3,0.1,0.5c0.3,1.3,1.4,2.3,2.8,2.5
		c0.1,0,0.1,0,0.2,0h24.2V49.3z M34,64C17.4,64,4,50.6,4,34S17.4,4,34,4s30,13.4,30,30S50.6,64,34,64z"/>
</g>
</svg>
