<?xml version="1.0" encoding="utf-8"?>
<!-- Generator: Adobe Illustrator 21.1.0, SVG Export Plug-In . SVG Version: 6.00 Build 0)  -->
<svg version="1.1" xmlns="http://www.w3.org/2000/svg" xmlns:xlink="http://www.w3.org/1999/xlink" x="0px" y="0px"
	 viewBox="0 0 67 67" style="enable-background:new 0 0 67 67;" xml:space="preserve">
<style type="text/css">
	.st0{fill:#FFFFFF;stroke:#000000;stroke-miterlimit:10;}
	.st1{fill:#3E9DD7;}
</style>
<g id="圖層_2">
	<rect x="14.7" y="16" class="st0" width="39.8" height="36.5"/>
</g>
<g id="Layer_1">
	<path class="st1" d="M35.8,46.4c-4.8,0.3-7.1-0.8-9.1-2.8c-2.3-2.2-1.4-4.7,0.5-4.9c1.9-0.1,3,2.2,4,2.8c1,0.6,4.8,2.1,6.8-0.3
		c2.2-2.6-1.5-3.9-4.1-4.3c-3.8-0.6-8.6-2.7-8.3-6.8c0.4-4.1,3.5-6.3,6.7-6.6c4.1-0.4,6.8,0.6,9,2.5c2.5,2.1,1.1,4.5-0.4,4.7
		c-1.6,0.2-3.3-3.5-6.8-3.6c-3.6-0.1-6,3.8-1.6,4.9c4.4,1.1,9.1,1.5,10.8,5.6C45,41.8,40.7,46.1,35.8,46.4z M49.4,36.7
		c0.1-0.7,0.1-1.4,0.1-2.1c0-8.4-6.8-15.3-15.2-15.3c-0.8,0-1.6,0.1-2.4,0.2C30.6,18.5,28.9,18,27,18c-5,0-9,4.1-9,9.2
		c0,1.8,0.5,3.6,1.5,5c-0.1,0.8-0.2,1.6-0.2,2.4c0,8.4,6.8,15.3,15.2,15.3c0.9,0,1.9-0.1,2.8-0.3c1.4,0.9,3,1.4,4.8,1.4
		c5,0,9-4.1,9-9.2C51,39.9,50.4,38.1,49.4,36.7z M34,64C17.4,64,4,50.6,4,34C4,17.4,17.4,4,34,4s30,13.4,30,30
		C64,50.6,50.6,64,34,64z"/>
</g>
</svg>
