<?xml version="1.0" encoding="utf-8"?>
<!-- Generator: Adobe Illustrator 21.1.0, SVG Export Plug-In . SVG Version: 6.00 Build 0)  -->
<svg version="1.1" xmlns="http://www.w3.org/2000/svg" xmlns:xlink="http://www.w3.org/1999/xlink" x="0px" y="0px"
	 viewBox="0 0 67 67" style="enable-background:new 0 0 67 67;" xml:space="preserve">
<style type="text/css">
	.st0{fill:#FFFFFF;stroke:#000000;stroke-miterlimit:10;}
	.st1{fill:#598DCA;}
</style>
<g id="圖層_2">
	<rect x="15.9" y="15.4" class="st0" width="35.9" height="35.9"/>
</g>
<g id="Layer_1">
	<path class="st1" d="M38.2,22.3c-2.6,1-4.3,3.4-4.1,6.1l0.1,1l-1-0.1c-3.8-0.5-7.1-2.1-10-4.9L21.7,23l-0.4,1
		c-0.8,2.3-0.3,4.7,1.3,6.3c0.8,0.9,0.6,1-0.8,0.5c-0.5-0.2-0.9-0.3-1-0.2c-0.1,0.1,0.4,2.1,0.8,2.8c0.5,1.1,1.7,2.1,2.9,2.7l1,0.5
		l-1.2,0c-1.2,0-1.2,0-1.1,0.5c0.4,1.4,2.1,2.8,3.9,3.5l1.3,0.4l-1.1,0.7c-1.7,1-3.6,1.5-5.6,1.6c-0.9,0-1.7,0.1-1.7,0.2
		c0,0.2,2.6,1.4,4,1.9c4.5,1.4,9.8,0.8,13.7-1.6c2.8-1.7,5.7-5,7-8.2c0.7-1.7,1.4-4.9,1.4-6.4c0-1,0.1-1.1,1.2-2.3
		c0.7-0.7,1.3-1.4,1.5-1.6c0.2-0.4,0.2-0.4-0.9,0c-1.8,0.6-2,0.6-1.2-0.4c0.6-0.7,1.4-1.9,1.4-2.3c0-0.1-0.3,0-0.7,0.2
		c-0.4,0.2-1.2,0.5-1.8,0.7l-1.1,0.4l-1-0.7c-0.6-0.4-1.4-0.8-1.8-0.9C40.8,21.9,39.1,21.9,38.2,22.3z M34,64C17.4,64,4,50.6,4,34
		C4,17.4,17.4,4,34,4s30,13.4,30,30C64,50.6,50.6,64,34,64z"/>
</g>
</svg>
