<?xml version="1.0" encoding="utf-8"?>
<!-- Generator: Adobe Illustrator 21.1.0, SVG Export Plug-In . SVG Version: 6.00 Build 0)  -->
<svg version="1.1" id="圖層_1" xmlns="http://www.w3.org/2000/svg" xmlns:xlink="http://www.w3.org/1999/xlink" x="0px" y="0px"
	 viewBox="0 0 67 67" style="enable-background:new 0 0 67 67;" xml:space="preserve">
<style type="text/css">
	.st0{fill:#FFFFFF;}
	.st1{fill:#E2E2E2;}
	.st2{fill:#FFAE30;}
	.st3{fill:#231F20;}
	.st4{fill:#F22128;}
</style>
<g id="圖層_2">
	<rect x="14.5" y="12.5" class="st0" width="36.2" height="42.1"/>
</g>
<g id="Layer_1">
	<path class="st1" d="M29.8,50.3h6.7V34H41l0.6-5.6h-5.1v-2.8c0-1.5,0.1-2.3,2.2-2.3h2.8v-5.6H37c-5.4,0-7.3,2.7-7.3,7.3v3.4h-3.4
		V34h3.4L29.8,50.3L29.8,50.3z M34,64C17.4,64,4,50.6,4,34S17.4,4,34,4s30,13.4,30,30S50.6,64,34,64z"/>
</g>
<g id="_10-qq">
	<path class="st2" d="M26.5,49.6c0,0-6.4,1.6-5,3.2c1,1.2,12.5,0.5,12.5-0.3C34,51.8,31.8,49,26.5,49.6z"/>
	<path class="st2" d="M42.2,49.6c0,0,6.4,1.6,5,3.2c-1,1.2-12.5,0.5-12.5-0.3C34.7,51.8,36.9,49,42.2,49.6z"/>
	<path class="st3" d="M34.3,53.1C47.8,53.1,48,41.4,48,41.4c0.9,1.5,2,2.9,3.4,3.9c0.1,0.1,0.3,0.1,0.4,0c0,0,0-0.1,0.1-0.1
		C53.2,41,47.5,29,47.5,29c0-18.9-13.2-17.8-13.2-17.8S21.1,10.1,21.1,29c0,0-5.7,12.1-4.3,16.3c0,0.2,0.2,0.3,0.4,0.2
		c0,0,0.1,0,0.1-0.1c1.4-1.1,2.5-2.4,3.4-3.9C20.7,41.4,22.6,53.1,34.3,53.1z"/>
	
		<ellipse transform="matrix(0.9983 -5.826098e-02 5.826098e-02 0.9983 -1.0955 1.828)" class="st0" cx="30.8" cy="19.7" rx="2.2" ry="3.5"/>
	
		<ellipse transform="matrix(5.826092e-02 -0.9983 0.9983 5.826092e-02 16.0094 56.375)" class="st0" cx="37.9" cy="19.7" rx="3.5" ry="2.2"/>
	<path class="st2" d="M34.3,28.4c3.1,0,6.6-1.7,7.7-2.3c0.2-0.1,0.2-0.3,0.1-0.4c0,0,0-0.1-0.1-0.1c-0.6-0.5-2.5-1.5-7.7-1.5
		s-7.1,1-7.7,1.5c-0.1,0.1-0.2,0.3,0,0.4c0,0,0.1,0.1,0.1,0.1C27.8,26.7,31.2,28.4,34.3,28.4z"/>
	<ellipse cx="31.7" cy="20" rx="0.8" ry="1.3"/>
	<path d="M36.6,20.9c-0.1,0-0.2,0-0.2-0.1c-0.2-0.1-0.3-0.4-0.2-0.6c0.3-0.6,0.9-1,1.6-1.1c0.6-0.1,1.2,0.2,1.6,0.6
		c0.2,0.2,0.2,0.5,0,0.7c-0.2,0.2-0.5,0.2-0.7,0c0,0,0,0,0,0c-0.2-0.2-0.5-0.4-0.8-0.3c-0.4,0.1-0.7,0.4-0.9,0.7
		C36.9,20.8,36.8,20.9,36.6,20.9z"/>
	<path class="st0" d="M34.3,51.6c13.3,0,9.8-18.3,9.8-18.3H24.6C24.6,33.2,21.1,51.6,34.3,51.6z"/>
	<path class="st4" d="M26.2,41.2v-6.1c-2.8-0.5-5.4-1.1-7-1.6c1-2.6,2-4.6,2-4.6s0-0.1,0-0.2c2.2,0.8,6.3,1.8,13.2,1.8
		s11-1,13.2-1.8c0,0.1,0,0.1,0,0.2c0,0.1,0.9,2,2,4.6c-3.1,0.8-9.7,2.4-15.2,2.4c-0.8,0-1.6,0-2.4-0.1v5.7
		C32,41.5,27.6,41.8,26.2,41.2z"/>
</g>
</svg>
