<?xml version="1.0" encoding="utf-8"?>
<!-- Generator: Adobe Illustrator 21.1.0, SVG Export Plug-In . SVG Version: 6.00 Build 0)  -->
<svg version="1.1" id="Layer_1" xmlns="http://www.w3.org/2000/svg" xmlns:xlink="http://www.w3.org/1999/xlink" x="0px" y="0px"
	 viewBox="0 0 100 100" style="enable-background:new 0 0 100 100;" xml:space="preserve">
<style type="text/css">
	.st0{fill:#31C139;}
	.st1{fill:#FFFFFF;}
</style>
<g>
	<circle class="st0" cx="50" cy="50" r="45"/>
	<path class="st1" d="M49.9,25.9c6.9,0.1,13.2,1.8,18.7,6c3.7,2.8,6.4,6.4,7.7,10.9c1.4,5.3,0.4,10.2-2.7,14.8
		c-2.2,3.2-5.1,5.8-8.1,8.2c-4.8,3.9-10,7.4-15.5,10.3c-0.5,0.3-1,0.5-1.5,0.6c-0.9,0.2-1.5-0.3-1.3-1.2c0.1-0.4,0.3-0.8,0.4-1.2
		c0.3-1.3,0.6-2.6,0.7-3.9c0.1-1-0.4-1.4-1.4-1.5c-6.2-0.6-11.9-2.6-16.7-6.7c-4.1-3.5-6.7-7.9-7.2-13.3c-0.4-4.7,1-8.9,3.9-12.6
		c3.9-5.1,9.2-8,15.4-9.5C44.8,26.1,47.3,25.9,49.9,25.9z M49.4,46.1c0.2,0.2,0.3,0.3,0.4,0.4c1.6,2.2,3.3,4.4,4.9,6.6
		c0.5,0.7,1.1,0.9,1.7,0.7c0.6-0.2,1-0.7,1-1.5c0-3.4,0-6.8,0-10.3c0-0.8-0.6-1.5-1.4-1.5c-0.8,0-1.4,0.6-1.4,1.5c0,1.9,0,3.7,0,5.6
		c0,0.2,0,0.3-0.1,0.6c-0.2-0.2-0.3-0.3-0.4-0.5c-1.6-2.1-3.2-4.3-4.8-6.4c-0.6-0.7-1.1-1-1.8-0.8c-0.7,0.2-1,0.7-1,1.7
		c0,3.3,0,6.6,0,9.9c0,1,0.6,1.7,1.4,1.7c0.9,0,1.4-0.6,1.4-1.6c0-1.3,0-2.5,0-3.8C49.4,47.8,49.4,47,49.4,46.1z M62.2,43.4
		c1.2,0,2.4,0,3.6,0c1,0,1.6-0.5,1.7-1.4c0-0.9-0.6-1.5-1.6-1.5c-1.6,0-3.2,0-4.8,0c-1.2,0-1.7,0.5-1.7,1.7c0,1,0,2,0,3
		c0,2.3,0,4.7,0,7c0,1.1,0.5,1.6,1.6,1.6c1.7,0,3.4,0,5.1,0c0.7,0,1.1-0.3,1.4-0.9c0.3-0.9-0.4-1.8-1.4-1.9c-1.3,0-2.5,0-3.8,0
		c0-0.8,0-1.6,0-2.4c1.3,0,2.5,0,3.8,0c0.9,0,1.5-0.6,1.5-1.4c0-0.8-0.6-1.4-1.5-1.4c-0.4,0-0.8,0-1.2,0c-0.9,0-1.7,0-2.6,0
		C62.2,45,62.2,44.3,62.2,43.4z M35.2,51.1c0-0.3,0-0.6,0-0.9c0-2.7,0-5.3,0-8c0-1-0.6-1.6-1.4-1.6c-0.8,0-1.4,0.6-1.4,1.6
		c0,3.3,0,6.7,0,10.1c0,1.1,0.5,1.6,1.6,1.6c1.6,0,3.3,0,4.9,0c1,0,1.6-0.5,1.6-1.4c0-0.8-0.7-1.4-1.7-1.4
		C37.7,51.1,36.5,51.1,35.2,51.1z M41.8,47.2C41.8,47.2,41.8,47.2,41.8,47.2c0,1.7,0,3.4,0,5.1c0,1,0.6,1.6,1.4,1.6
		c0.9,0,1.4-0.6,1.4-1.6c0-3.4,0-6.8,0-10.2c0-0.3-0.1-0.6-0.2-0.8c-0.4-0.6-0.9-0.7-1.6-0.6c-0.6,0.2-1,0.7-1,1.5
		C41.8,43.8,41.8,45.5,41.8,47.2z"/>
</g>
</svg>
