<?xml version="1.0" ?><!DOCTYPE svg  PUBLIC '-//W3C//DTD SVG 1.1//EN'  'http://www.w3.org/Graphics/SVG/1.1/DTD/svg11.dtd'><svg enable-background="new 0 0 100 100" height="100px" id="Layer_1" version="1.1" viewBox="0 0 100 100" width="100px" xml:space="preserve" xmlns="http://www.w3.org/2000/svg" xmlns:xlink="http://www.w3.org/1999/xlink"><g><circle cx="50" cy="50.001" fill="#20C300" r="45"/><g><path clip-rule="evenodd" d="M60.24,42.747c-1.75,0.195-3.464,0.252-5.117,0.598    c-3.84,0.809-6.998,2.762-9.207,6.066c-1.916,2.865-2.308,5.996-1.447,9.307c0.047,0.18,0.102,0.361,0.188,0.67    c-1.036-0.062-2.018-0.053-2.975-0.195c-1.214-0.182-2.407-0.498-3.615-0.727c-0.232-0.043-0.524-0.01-0.732,0.1    c-1.48,0.766-2.945,1.561-4.416,2.346c-0.198,0.105-0.402,0.201-0.716,0.355c0.076-0.287,0.114-0.477,0.176-0.66    c0.407-1.223,0.801-2.449,1.239-3.658c0.135-0.377,0.062-0.557-0.26-0.785c-2.601-1.85-4.625-4.182-5.541-7.285    c-1.558-5.277,0.025-9.713,3.992-13.301c3.835-3.467,8.48-4.725,13.58-4.357c3.807,0.273,7.247,1.561,10.189,4.027    c2.251,1.887,3.831,4.23,4.575,7.102c0.033,0.127,0.064,0.256,0.085,0.387C60.247,42.784,60.217,42.839,60.24,42.747z     M51.871,40.351c0.04-1.252-0.981-2.336-2.243-2.387c-1.325-0.049-2.349,0.922-2.387,2.27c-0.036,1.27,0.932,2.344,2.15,2.391    C50.709,42.673,51.831,41.644,51.871,40.351z M40.447,40.296c0.012-1.225-1.074-2.318-2.319-2.336    c-1.306-0.018-2.315,1.004-2.326,2.355c-0.01,1.246,1.03,2.307,2.26,2.305C39.376,42.616,40.435,41.585,40.447,40.296z" fill="#FFFFFF" fill-rule="evenodd"/><path clip-rule="evenodd" d="M68.49,68.843c-0.428-0.23-0.854-0.465-1.283-0.691    c-0.919-0.484-1.803-1.078-2.774-1.42c-1.021-0.359-2.007,0.305-3.022,0.445c-4.582,0.625-8.771-0.262-12.376-3.234    c-5.519-4.551-5.513-12.15-0.006-16.717c3.174-2.633,6.887-3.648,10.963-3.379c3.246,0.215,6.188,1.277,8.686,3.398    c5.461,4.637,5.461,11.998,0.021,16.656c-0.027,0.025-0.058,0.049-0.088,0.072c-0.396,0.344-1.014,0.627-1.127,1.047    c-0.116,0.428,0.262,0.99,0.422,1.494c0.235,0.748,0.472,1.496,0.707,2.246C68.57,68.788,68.53,68.815,68.49,68.843z     M56.48,51.812c0-0.977-0.923-1.895-1.905-1.895c-1.029,0-1.844,0.852-1.836,1.918c0.008,0.994,0.821,1.809,1.814,1.816    C55.609,53.659,56.48,52.827,56.48,51.812z M65.654,51.827c-0.004-1.004-0.89-1.904-1.873-1.904c-0.941,0-1.931,0.922-1.941,1.809    c-0.011,1,0.934,1.934,1.941,1.918C64.809,53.634,65.656,52.81,65.654,51.827z" fill="#FFFFFF" fill-rule="evenodd"/></g></g></svg>