<?xml version="1.0" encoding="utf-8"?>
<!-- Generator: Adobe Illustrator 21.1.0, SVG Export Plug-In . SVG Version: 6.00 Build 0)  -->
<svg version="1.1" xmlns="http://www.w3.org/2000/svg" xmlns:xlink="http://www.w3.org/1999/xlink" x="0px" y="0px"
	 viewBox="0 0 67 67" style="enable-background:new 0 0 67 67;" xml:space="preserve">
<style type="text/css">
	.st0{fill:#FFFFFF;}
	.st1{fill:#3A589B;}
</style>
<g id="圖層_2">
	<rect x="14.5" y="12.5" class="st0" width="36.2" height="42.1"/>
</g>
<g id="Layer_1">
	<path class="st1" d="M29.8,50.3h6.7V34H41l0.6-5.6h-5.1l0-2.8c0-1.5,0.1-2.3,2.2-2.3h2.8v-5.6h-4.5c-5.4,0-7.3,2.7-7.3,7.3v3.4
		h-3.4V34h3.4V50.3z M34,64C17.4,64,4,50.6,4,34C4,17.4,17.4,4,34,4s30,13.4,30,30C64,50.6,50.6,64,34,64z"/>
</g>
</svg>
